<mxfile host="app.diagrams.net" agent="Mozilla/5.0 (Windows NT 10.0; Win64; x64) AppleWebKit/537.36 (KHTML, like Gecko) Chrome/127.0.0.0 Safari/537.36" version="24.7.6">
  <diagram name="Page-1" id="M8CIp2sN7s1w6IS4YRyU">
    <mxGraphModel dx="1105" dy="549" grid="1" gridSize="10" guides="1" tooltips="1" connect="1" arrows="1" fold="1" page="1" pageScale="1" pageWidth="827" pageHeight="1169" math="0" shadow="0">
      <root>
        <mxCell id="0" />
        <mxCell id="1" parent="0" />
        <mxCell id="jsJCT8-NyrA9wbu5rPo5-3" value="" style="endArrow=none;html=1;rounded=0;" edge="1" parent="1">
          <mxGeometry width="50" height="50" relative="1" as="geometry">
            <mxPoint x="30" y="30" as="sourcePoint" />
            <mxPoint x="800" y="30" as="targetPoint" />
          </mxGeometry>
        </mxCell>
        <mxCell id="jsJCT8-NyrA9wbu5rPo5-4" value="" style="endArrow=none;html=1;rounded=0;" edge="1" parent="1">
          <mxGeometry width="50" height="50" relative="1" as="geometry">
            <mxPoint x="30" y="1140" as="sourcePoint" />
            <mxPoint x="30" y="30" as="targetPoint" />
          </mxGeometry>
        </mxCell>
        <mxCell id="jsJCT8-NyrA9wbu5rPo5-5" value="" style="endArrow=none;html=1;rounded=0;" edge="1" parent="1">
          <mxGeometry width="50" height="50" relative="1" as="geometry">
            <mxPoint x="30" y="1140" as="sourcePoint" />
            <mxPoint x="800" y="1140" as="targetPoint" />
          </mxGeometry>
        </mxCell>
        <mxCell id="jsJCT8-NyrA9wbu5rPo5-6" value="" style="endArrow=none;html=1;rounded=0;" edge="1" parent="1">
          <mxGeometry width="50" height="50" relative="1" as="geometry">
            <mxPoint x="800" y="1140" as="sourcePoint" />
            <mxPoint x="800" y="30" as="targetPoint" />
          </mxGeometry>
        </mxCell>
        <mxCell id="jsJCT8-NyrA9wbu5rPo5-7" value="&lt;font style=&quot;font-size: 14px;&quot;&gt;Interviewer Flow Diagram&lt;/font&gt;" style="text;html=1;align=center;verticalAlign=middle;whiteSpace=wrap;rounded=0;" vertex="1" parent="1">
          <mxGeometry x="304" y="50" width="220" height="30" as="geometry" />
        </mxCell>
        <mxCell id="jsJCT8-NyrA9wbu5rPo5-33" style="edgeStyle=orthogonalEdgeStyle;rounded=0;orthogonalLoop=1;jettySize=auto;html=1;" edge="1" parent="1" source="jsJCT8-NyrA9wbu5rPo5-12">
          <mxGeometry relative="1" as="geometry">
            <mxPoint x="420" y="210" as="targetPoint" />
          </mxGeometry>
        </mxCell>
        <mxCell id="jsJCT8-NyrA9wbu5rPo5-12" value="Start Interviewer&lt;div&gt;Login&lt;/div&gt;" style="strokeWidth=2;html=1;shape=mxgraph.flowchart.terminator;whiteSpace=wrap;" vertex="1" parent="1">
          <mxGeometry x="370" y="100" width="100" height="60" as="geometry" />
        </mxCell>
        <mxCell id="jsJCT8-NyrA9wbu5rPo5-34" style="edgeStyle=orthogonalEdgeStyle;rounded=0;orthogonalLoop=1;jettySize=auto;html=1;" edge="1" parent="1" source="jsJCT8-NyrA9wbu5rPo5-13">
          <mxGeometry relative="1" as="geometry">
            <mxPoint x="430" y="330" as="targetPoint" />
          </mxGeometry>
        </mxCell>
        <mxCell id="jsJCT8-NyrA9wbu5rPo5-13" value="Enter email&lt;div&gt;and password&lt;/div&gt;" style="shape=parallelogram;html=1;strokeWidth=2;perimeter=parallelogramPerimeter;whiteSpace=wrap;rounded=1;arcSize=12;size=0.23;" vertex="1" parent="1">
          <mxGeometry x="370" y="220" width="120" height="60" as="geometry" />
        </mxCell>
        <mxCell id="jsJCT8-NyrA9wbu5rPo5-35" style="edgeStyle=orthogonalEdgeStyle;rounded=0;orthogonalLoop=1;jettySize=auto;html=1;" edge="1" parent="1" source="jsJCT8-NyrA9wbu5rPo5-14">
          <mxGeometry relative="1" as="geometry">
            <mxPoint x="580" y="390" as="targetPoint" />
          </mxGeometry>
        </mxCell>
        <mxCell id="jsJCT8-NyrA9wbu5rPo5-36" style="edgeStyle=orthogonalEdgeStyle;rounded=0;orthogonalLoop=1;jettySize=auto;html=1;" edge="1" parent="1" source="jsJCT8-NyrA9wbu5rPo5-14">
          <mxGeometry relative="1" as="geometry">
            <mxPoint x="430" y="490" as="targetPoint" />
          </mxGeometry>
        </mxCell>
        <mxCell id="jsJCT8-NyrA9wbu5rPo5-14" value="Authentication&lt;div&gt;validation&lt;/div&gt;" style="strokeWidth=2;html=1;shape=mxgraph.flowchart.decision;whiteSpace=wrap;" vertex="1" parent="1">
          <mxGeometry x="380" y="340" width="100" height="100" as="geometry" />
        </mxCell>
        <mxCell id="jsJCT8-NyrA9wbu5rPo5-37" style="edgeStyle=orthogonalEdgeStyle;rounded=0;orthogonalLoop=1;jettySize=auto;html=1;" edge="1" parent="1">
          <mxGeometry relative="1" as="geometry">
            <mxPoint x="260" y="555" as="targetPoint" />
            <mxPoint x="380" y="555" as="sourcePoint" />
          </mxGeometry>
        </mxCell>
        <mxCell id="jsJCT8-NyrA9wbu5rPo5-38" style="edgeStyle=orthogonalEdgeStyle;rounded=0;orthogonalLoop=1;jettySize=auto;html=1;" edge="1" parent="1">
          <mxGeometry relative="1" as="geometry">
            <mxPoint x="600" y="555" as="targetPoint" />
            <mxPoint x="480" y="555" as="sourcePoint" />
          </mxGeometry>
        </mxCell>
        <mxCell id="jsJCT8-NyrA9wbu5rPo5-39" style="edgeStyle=orthogonalEdgeStyle;rounded=0;orthogonalLoop=1;jettySize=auto;html=1;" edge="1" parent="1">
          <mxGeometry relative="1" as="geometry">
            <mxPoint x="430" y="660" as="targetPoint" />
            <mxPoint x="430" y="610" as="sourcePoint" />
          </mxGeometry>
        </mxCell>
        <mxCell id="jsJCT8-NyrA9wbu5rPo5-20" value="Delete a job&lt;div&gt;post or change&lt;/div&gt;&lt;div&gt;the active status&lt;/div&gt;&lt;div&gt;of a job&lt;/div&gt;" style="rounded=1;whiteSpace=wrap;html=1;absoluteArcSize=1;arcSize=14;strokeWidth=2;" vertex="1" parent="1">
          <mxGeometry x="610" y="510" width="100" height="90" as="geometry" />
        </mxCell>
        <mxCell id="jsJCT8-NyrA9wbu5rPo5-23" value="Redirect to login&lt;div&gt;page&lt;/div&gt;" style="rounded=1;whiteSpace=wrap;html=1;absoluteArcSize=1;arcSize=14;strokeWidth=2;" vertex="1" parent="1">
          <mxGeometry x="590" y="340" width="100" height="100" as="geometry" />
        </mxCell>
        <mxCell id="jsJCT8-NyrA9wbu5rPo5-24" value="Add new Jobs" style="rounded=1;whiteSpace=wrap;html=1;absoluteArcSize=1;arcSize=14;strokeWidth=2;" vertex="1" parent="1">
          <mxGeometry x="150" y="505" width="100" height="100" as="geometry" />
        </mxCell>
        <mxCell id="jsJCT8-NyrA9wbu5rPo5-40" style="edgeStyle=orthogonalEdgeStyle;rounded=0;orthogonalLoop=1;jettySize=auto;html=1;" edge="1" parent="1">
          <mxGeometry relative="1" as="geometry">
            <mxPoint x="600" y="720" as="targetPoint" />
            <mxPoint x="480" y="720" as="sourcePoint" />
          </mxGeometry>
        </mxCell>
        <mxCell id="jsJCT8-NyrA9wbu5rPo5-41" style="edgeStyle=orthogonalEdgeStyle;rounded=0;orthogonalLoop=1;jettySize=auto;html=1;" edge="1" parent="1">
          <mxGeometry relative="1" as="geometry">
            <mxPoint x="380" y="720" as="sourcePoint" />
            <mxPoint x="260" y="720" as="targetPoint" />
          </mxGeometry>
        </mxCell>
        <mxCell id="jsJCT8-NyrA9wbu5rPo5-43" style="edgeStyle=orthogonalEdgeStyle;rounded=0;orthogonalLoop=1;jettySize=auto;html=1;" edge="1" parent="1" source="jsJCT8-NyrA9wbu5rPo5-27">
          <mxGeometry relative="1" as="geometry">
            <mxPoint x="660" y="830" as="targetPoint" />
          </mxGeometry>
        </mxCell>
        <mxCell id="jsJCT8-NyrA9wbu5rPo5-27" value="Redirect to&lt;div&gt;Applicants page&lt;/div&gt;" style="rounded=1;whiteSpace=wrap;html=1;absoluteArcSize=1;arcSize=14;strokeWidth=2;" vertex="1" parent="1">
          <mxGeometry x="610" y="670" width="100" height="100" as="geometry" />
        </mxCell>
        <mxCell id="jsJCT8-NyrA9wbu5rPo5-42" style="edgeStyle=orthogonalEdgeStyle;rounded=0;orthogonalLoop=1;jettySize=auto;html=1;" edge="1" parent="1" source="jsJCT8-NyrA9wbu5rPo5-28">
          <mxGeometry relative="1" as="geometry">
            <mxPoint x="200" y="830" as="targetPoint" />
          </mxGeometry>
        </mxCell>
        <mxCell id="jsJCT8-NyrA9wbu5rPo5-28" value="Redirect to&lt;div&gt;shortlisted and&lt;/div&gt;&lt;div&gt;interviewed&lt;/div&gt;&lt;div&gt;candidate&lt;/div&gt;&lt;div&gt;page&lt;/div&gt;" style="rounded=1;whiteSpace=wrap;html=1;absoluteArcSize=1;arcSize=14;strokeWidth=2;" vertex="1" parent="1">
          <mxGeometry x="150" y="670" width="100" height="100" as="geometry" />
        </mxCell>
        <mxCell id="jsJCT8-NyrA9wbu5rPo5-44" style="edgeStyle=orthogonalEdgeStyle;rounded=0;orthogonalLoop=1;jettySize=auto;html=1;" edge="1" parent="1" source="jsJCT8-NyrA9wbu5rPo5-29">
          <mxGeometry relative="1" as="geometry">
            <mxPoint x="660" y="970" as="targetPoint" />
          </mxGeometry>
        </mxCell>
        <mxCell id="jsJCT8-NyrA9wbu5rPo5-29" value="Shortlist&lt;div&gt;candidates&lt;/div&gt;" style="strokeWidth=2;html=1;shape=mxgraph.flowchart.decision;whiteSpace=wrap;" vertex="1" parent="1">
          <mxGeometry x="610" y="840" width="100" height="100" as="geometry" />
        </mxCell>
        <mxCell id="jsJCT8-NyrA9wbu5rPo5-30" value="Can add comment&lt;div&gt;about rejection&lt;/div&gt;&lt;div&gt;of CV&lt;/div&gt;" style="rounded=1;whiteSpace=wrap;html=1;absoluteArcSize=1;arcSize=14;strokeWidth=2;" vertex="1" parent="1">
          <mxGeometry x="610" y="980" width="100" height="100" as="geometry" />
        </mxCell>
        <mxCell id="jsJCT8-NyrA9wbu5rPo5-32" value="Add interview&lt;div&gt;marks related to&lt;/div&gt;&lt;div&gt;different criteria, Add comments and see past results&lt;/div&gt;" style="rounded=1;whiteSpace=wrap;html=1;absoluteArcSize=1;arcSize=14;strokeWidth=2;" vertex="1" parent="1">
          <mxGeometry x="150" y="1010" width="100" height="100" as="geometry" />
        </mxCell>
        <mxCell id="jsJCT8-NyrA9wbu5rPo5-45" value="False" style="text;html=1;align=center;verticalAlign=middle;resizable=0;points=[];autosize=1;strokeColor=none;fillColor=none;" vertex="1" parent="1">
          <mxGeometry x="485" y="358" width="50" height="30" as="geometry" />
        </mxCell>
        <mxCell id="jsJCT8-NyrA9wbu5rPo5-46" value="True" style="text;html=1;align=center;verticalAlign=middle;resizable=0;points=[];autosize=1;strokeColor=none;fillColor=none;" vertex="1" parent="1">
          <mxGeometry x="420" y="440" width="50" height="30" as="geometry" />
        </mxCell>
        <mxCell id="jsJCT8-NyrA9wbu5rPo5-47" value="False" style="text;html=1;align=center;verticalAlign=middle;resizable=0;points=[];autosize=1;strokeColor=none;fillColor=none;" vertex="1" parent="1">
          <mxGeometry x="660" y="940" width="50" height="30" as="geometry" />
        </mxCell>
        <mxCell id="jsJCT8-NyrA9wbu5rPo5-49" value="Redirect to&lt;div&gt;Admin&lt;/div&gt;&lt;div&gt;Dashboard&lt;/div&gt;" style="rounded=1;whiteSpace=wrap;html=1;absoluteArcSize=1;arcSize=14;strokeWidth=2;" vertex="1" parent="1">
          <mxGeometry x="380" y="505" width="100" height="100" as="geometry" />
        </mxCell>
        <mxCell id="jsJCT8-NyrA9wbu5rPo5-50" value="Select the job going to proceed&lt;div&gt;with&lt;/div&gt;" style="rounded=1;whiteSpace=wrap;html=1;absoluteArcSize=1;arcSize=14;strokeWidth=2;" vertex="1" parent="1">
          <mxGeometry x="380" y="670" width="100" height="100" as="geometry" />
        </mxCell>
        <mxCell id="jsJCT8-NyrA9wbu5rPo5-52" style="edgeStyle=orthogonalEdgeStyle;rounded=0;orthogonalLoop=1;jettySize=auto;html=1;" edge="1" parent="1" source="jsJCT8-NyrA9wbu5rPo5-51">
          <mxGeometry relative="1" as="geometry">
            <mxPoint x="200" y="1000" as="targetPoint" />
          </mxGeometry>
        </mxCell>
        <mxCell id="jsJCT8-NyrA9wbu5rPo5-51" value="Go to candidate&lt;div&gt;personal&amp;nbsp;&lt;/div&gt;&lt;div&gt;profile&lt;/div&gt;" style="rounded=1;whiteSpace=wrap;html=1;absoluteArcSize=1;arcSize=14;strokeWidth=2;" vertex="1" parent="1">
          <mxGeometry x="150" y="840" width="100" height="100" as="geometry" />
        </mxCell>
        <mxCell id="jsJCT8-NyrA9wbu5rPo5-54" value="&lt;font style=&quot;font-size: 14px;&quot;&gt;User Flow Diagram&lt;/font&gt;" style="text;html=1;align=center;verticalAlign=middle;whiteSpace=wrap;rounded=0;" vertex="1" parent="1">
          <mxGeometry x="304" y="1230" width="220" height="30" as="geometry" />
        </mxCell>
        <mxCell id="jsJCT8-NyrA9wbu5rPo5-55" value="" style="endArrow=none;html=1;rounded=0;" edge="1" parent="1">
          <mxGeometry width="50" height="50" relative="1" as="geometry">
            <mxPoint x="30" y="1200" as="sourcePoint" />
            <mxPoint x="800" y="1200" as="targetPoint" />
          </mxGeometry>
        </mxCell>
        <mxCell id="jsJCT8-NyrA9wbu5rPo5-56" value="" style="endArrow=none;html=1;rounded=0;" edge="1" parent="1">
          <mxGeometry width="50" height="50" relative="1" as="geometry">
            <mxPoint x="30" y="2310" as="sourcePoint" />
            <mxPoint x="30" y="1200" as="targetPoint" />
          </mxGeometry>
        </mxCell>
        <mxCell id="jsJCT8-NyrA9wbu5rPo5-57" value="" style="endArrow=none;html=1;rounded=0;" edge="1" parent="1">
          <mxGeometry width="50" height="50" relative="1" as="geometry">
            <mxPoint x="30" y="2310" as="sourcePoint" />
            <mxPoint x="800" y="2310" as="targetPoint" />
          </mxGeometry>
        </mxCell>
        <mxCell id="jsJCT8-NyrA9wbu5rPo5-58" value="" style="endArrow=none;html=1;rounded=0;" edge="1" parent="1">
          <mxGeometry width="50" height="50" relative="1" as="geometry">
            <mxPoint x="800" y="2310" as="sourcePoint" />
            <mxPoint x="800" y="1200" as="targetPoint" />
          </mxGeometry>
        </mxCell>
        <mxCell id="jsJCT8-NyrA9wbu5rPo5-63" style="edgeStyle=orthogonalEdgeStyle;rounded=0;orthogonalLoop=1;jettySize=auto;html=1;" edge="1" parent="1" source="jsJCT8-NyrA9wbu5rPo5-59">
          <mxGeometry relative="1" as="geometry">
            <mxPoint x="400" y="1430" as="targetPoint" />
          </mxGeometry>
        </mxCell>
        <mxCell id="jsJCT8-NyrA9wbu5rPo5-59" value="Start in Job&lt;div&gt;Opportunity page&lt;/div&gt;&lt;div&gt;in LB Finance&lt;/div&gt;" style="strokeWidth=2;html=1;shape=mxgraph.flowchart.terminator;whiteSpace=wrap;" vertex="1" parent="1">
          <mxGeometry x="350" y="1310" width="100" height="60" as="geometry" />
        </mxCell>
        <mxCell id="jsJCT8-NyrA9wbu5rPo5-64" style="edgeStyle=orthogonalEdgeStyle;rounded=0;orthogonalLoop=1;jettySize=auto;html=1;" edge="1" parent="1" source="jsJCT8-NyrA9wbu5rPo5-60">
          <mxGeometry relative="1" as="geometry">
            <mxPoint x="400" y="1600" as="targetPoint" />
          </mxGeometry>
        </mxCell>
        <mxCell id="jsJCT8-NyrA9wbu5rPo5-60" value="Select the&lt;div&gt;interested&lt;/div&gt;&lt;div&gt;Job&lt;/div&gt;" style="strokeWidth=2;html=1;shape=mxgraph.flowchart.decision;whiteSpace=wrap;" vertex="1" parent="1">
          <mxGeometry x="350" y="1440" width="100" height="100" as="geometry" />
        </mxCell>
        <mxCell id="jsJCT8-NyrA9wbu5rPo5-65" style="edgeStyle=orthogonalEdgeStyle;rounded=0;orthogonalLoop=1;jettySize=auto;html=1;" edge="1" parent="1" source="jsJCT8-NyrA9wbu5rPo5-61">
          <mxGeometry relative="1" as="geometry">
            <mxPoint x="400" y="1770" as="targetPoint" />
          </mxGeometry>
        </mxCell>
        <mxCell id="jsJCT8-NyrA9wbu5rPo5-61" value="Redirect to form to fill (The job description is shown here)" style="rounded=1;whiteSpace=wrap;html=1;absoluteArcSize=1;arcSize=14;strokeWidth=2;" vertex="1" parent="1">
          <mxGeometry x="350" y="1610" width="100" height="100" as="geometry" />
        </mxCell>
        <mxCell id="jsJCT8-NyrA9wbu5rPo5-62" value="Submit the form" style="strokeWidth=2;html=1;shape=mxgraph.flowchart.terminator;whiteSpace=wrap;" vertex="1" parent="1">
          <mxGeometry x="350" y="1780" width="100" height="60" as="geometry" />
        </mxCell>
      </root>
    </mxGraphModel>
  </diagram>
</mxfile>
